<svg width="174" height="193" viewBox="0 0 174 193" fill="none" xmlns="http://www.w3.org/2000/svg">
  <g filter="url(#filter0_d_0_1)">
    <rect x="12" y="4" width="150" height="169" rx="20" fill="#4E36E2" />
  </g>
  <mask id="mask0_0_1" style="mask-type:alpha" maskUnits="userSpaceOnUse" x="12" y="4" width="150" height="169">
    <rect x="12" y="4" width="150" height="169" rx="20" fill="#40189D" />
  </mask>
  <g mask="url(#mask0_0_1)">
    <path
      d="M68.2143 40.3333C69.4372 40.3333 70.4286 41.378 70.4286 42.6667C70.4286 43.9553 69.4372 45 68.2143 45C66.9914 45 66 43.9553 66 42.6667C66 41.378 66.9914 40.3333 68.2143 40.3333Z"
      fill="#664EFF" />
    <path
      d="M68.2143 31C69.4372 31 70.4286 32.0447 70.4286 33.3333C70.4286 34.622 69.4372 35.6667 68.2143 35.6667C66.9914 35.6667 66 34.622 66 33.3333C66 32.0447 66.9914 31 68.2143 31Z"
      fill="#664EFF" />
    <path
      d="M77.0714 40.3333C78.2943 40.3333 79.2857 41.378 79.2857 42.6667C79.2857 43.9553 78.2943 45 77.0714 45C75.8485 45 74.8571 43.9553 74.8571 42.6667C74.8571 41.378 75.8485 40.3333 77.0714 40.3333Z"
      fill="#664EFF" />
    <path
      d="M77.0714 31C78.2943 31 79.2857 32.0447 79.2857 33.3333C79.2857 34.622 78.2943 35.6667 77.0714 35.6667C75.8485 35.6667 74.8571 34.622 74.8571 33.3333C74.8571 32.0447 75.8485 31 77.0714 31Z"
      fill="#664EFF" />
    <path
      d="M85.9286 40.3333C87.1515 40.3333 88.1429 41.378 88.1429 42.6667C88.1429 43.9553 87.1515 45 85.9286 45C84.7057 45 83.7143 43.9553 83.7143 42.6667C83.7143 41.378 84.7057 40.3333 85.9286 40.3333Z"
      fill="#664EFF" />
    <path
      d="M85.9286 31C87.1515 31 88.1429 32.0447 88.1429 33.3333C88.1429 34.622 87.1515 35.6667 85.9286 35.6667C84.7057 35.6667 83.7143 34.622 83.7143 33.3333C83.7143 32.0447 84.7057 31 85.9286 31Z"
      fill="#664EFF" />
    <path
      d="M94.7857 40.3333C96.0086 40.3333 97 41.378 97 42.6667C97 43.9553 96.0086 45 94.7857 45C93.5628 45 92.5714 43.9553 92.5714 42.6667C92.5714 41.378 93.5628 40.3333 94.7857 40.3333Z"
      fill="#664EFF" />
    <path
      d="M94.7857 31C96.0086 31 97 32.0447 97 33.3333C97 34.622 96.0086 35.6667 94.7857 35.6667C93.5628 35.6667 92.5714 34.622 92.5714 33.3333C92.5714 32.0447 93.5628 31 94.7857 31Z"
      fill="#664EFF" />
    <path
      d="M116.293 154.049L116.295 154.05C116.594 154.335 116.966 154.476 117.374 154.46L116.293 154.049ZM116.293 154.049L93.7892 132.711M116.293 154.049L93.7892 132.711M117.801 165.045L117.799 165.045C117.635 165.051 117.469 165.055 117.302 165.055C114.197 165.055 111.262 163.883 108.999 161.731L86.5 140.398C84.3769 138.386 84.2881 135.033 86.301 132.91L117.801 165.045ZM117.801 165.045C121.086 164.912 124.11 163.488 126.305 161.038M117.801 165.045L126.305 161.038M93.7892 132.711C93.7892 132.711 93.7892 132.711 93.7892 132.711M93.7892 132.711L93.7892 132.711M93.7892 132.711C91.6665 130.698 88.3136 130.787 86.3012 132.91L93.7892 132.711ZM126.305 161.038C126.372 160.964 126.434 160.891 126.49 160.821L126.305 161.038ZM154.705 168.2L154.705 168.2C153.08 170.632 153.732 173.922 156.165 175.547C157.068 176.152 158.093 176.441 159.105 176.441C160.811 176.441 162.491 175.617 163.512 174.088C169.717 164.807 173 154.056 173 143C173 138.262 172.406 133.553 171.235 129.003L171.235 129.003C170.506 126.17 167.619 124.466 164.785 125.194L164.785 125.194C161.952 125.923 160.246 128.812 160.976 131.644C161.925 135.33 162.406 139.151 162.406 143C162.406 151.95 159.745 160.663 154.705 168.2ZM142.777 105.615L142.778 105.615C145.184 107.278 148.483 106.674 150.146 104.268L150.147 104.268C151.809 101.862 151.207 98.5625 148.8 96.899L148.8 96.899C139.427 90.4234 128.43 87 117 87C102.044 87 87.9775 92.8264 77.402 103.402C66.8264 113.978 61 128.044 61 143C61 157.956 66.8264 172.022 77.402 182.598C87.9775 193.174 102.044 199 117 199C127.239 199 137.259 196.21 145.976 190.929C148.479 189.413 149.279 186.156 147.763 183.654L147.763 183.654C146.246 181.151 142.99 180.353 140.487 181.868L141.005 182.723L140.487 181.868C133.427 186.144 125.306 188.406 117 188.406C91.964 188.406 71.5937 168.036 71.5937 143C71.5937 117.964 91.964 97.5938 117 97.5938C126.272 97.5938 135.183 100.367 142.777 105.615ZM126.49 160.82L171.831 104.424C173.664 102.145 173.302 98.8103 171.022 96.9777C168.743 95.1443 165.407 95.5066 163.574 97.7866L118.353 154.035C118.09 154.295 117.75 154.445 117.375 154.46L126.49 160.82Z"
      fill="#5C44F1" stroke="#5C44F1" stroke-width="2" />
  </g>
  <defs>
    <filter id="filter0_d_0_1" x="0" y="0" width="174" height="193" filterUnits="userSpaceOnUse"
      color-interpolation-filters="sRGB">
      <feFlood flood-opacity="0" result="BackgroundImageFix" />
      <feColorMatrix in="SourceAlpha" type="matrix" values="0 0 0 0 0 0 0 0 0 0 0 0 0 0 0 0 0 0 127 0"
        result="hardAlpha" />
      <feOffset dy="8" />
      <feGaussianBlur stdDeviation="6" />
      <feColorMatrix type="matrix" values="0 0 0 0 0 0 0 0 0 0 0 0 0 0 0 0 0 0 0.03 0" />
      <feBlend mode="normal" in2="BackgroundImageFix" result="effect1_dropShadow_0_1" />
      <feBlend mode="normal" in="SourceGraphic" in2="effect1_dropShadow_0_1" result="shape" />
    </filter>
  </defs>
</svg>